Patient4_TMGait_0pt6_01_left_10_EMG.mot
version=1
nRows=13
nColumns=33
inDegrees=no
endheader
time	1LAddLong	2LGlutMax	3LGlutMed	4LIliopsoas	5LSemiMemb	6LBicFemLong	7LRecFem	8LVastMed	9LVastLat	10LGasMed	11LTibAnt	12lTibPost	13LPeroneusLong	14LSol	15LExtDigLong	16LFlexDigLong	17RAddLong	18RGlutMax	19RGlutMed	20RIliopsoas	21RSemiMemb	22RBicFemLong	23RRecFem	24RVastMed	25RVastLat	26RGasMed	27RTibAnt	28RTibPost	29RPeroneusLong	30RSol	31RExtDigLong	32RFlexDigLong
12.14	0.006104	0.63416	0.010376	-0.005951	0.007019	0.037994	0.17807	0.022736	-0.35111	-0.036774	0.15106	0.001526	-0.02533	0.20355	-0.092163	0.017548	-0.004883	-0.25833	-0.21973	0.15762	0.11414	0.11383	-0.11978	0.005188	0.029907	-0.049744	0.12543	-0.000153	0.045929	-0.14618	0	0.011749
12.141	0.00824	0.6311	-0.026093	0.015564	0.004883	0.029602	0.12955	0.019836	-0.38147	-0.020447	0.2272	-0.003052	-0.090942	0.085449	-0.48798	0.006561	-0.009003	-0.26062	-0.35095	0.092621	0.094604	0.2623	-0.26306	0.13687	0.23682	0.023346	0.18417	-0.078583	2.1312	-0.34347	-0.003967	0.001831
12.142	0.006866	0.61966	-0.024109	0.019684	0.007935	0.007629	0.1091	0.024109	-0.4155	0.001831	0.22308	0.000153	-0.088959	-0.077209	-0.29282	0.005646	-0.00885	-0.21439	-0.16983	0.040741	0.050354	0.069733	-0.098267	0.30426	0.11475	0.039368	0.091095	-0.013428	1.7403	0.080872	-0.004272	-0.007477
12.143	0.001678	0.60562	-0.027466	0.027924	0.013733	0.003204	0.10483	0.029297	-0.48645	0.014038	-0.064545	0.00061	0.012054	-0.08316	0.12894	0.019836	-0.013733	-0.24384	0.14801	0.090942	-0.009766	-0.053711	-0.26932	0.32562	-0.08316	0.049591	-0.1889	0.062103	1.4171	0.15564	-0.006104	-0.006561
12.144	0.008698	0.5629	-0.019531	0.019226	-0.000458	0.004578	0.080414	0.023193	-0.52612	-0.032654	-0.21912	0.000153	0.11841	-0.05249	0.37628	0.014038	-0.009918	-0.25864	0.31021	0.10147	-0.032959	-0.023651	-0.41992	0.19638	-0.27481	0.056763	-0.17242	0.038147	-0.87418	0.021973	-0.003052	-0.00412
12.145	0.00412	0.51468	-0.010223	0.003967	0.018463	-0.012054	0.064697	0.029907	-0.54749	-0.036926	-0.31952	0.001831	0.1416	0.000763	0.22507	0.025024	0.005188	-0.31021	-0.056152	0.079956	-0.054016	0.012207	-0.073547	-0.010986	-0.12085	0.033875	-0.1088	0.011139	-0.3833	0.046234	-0.001678	0.002747
12.146	0.009613	0.5011	-0.012054	-0.008087	0.01297	-0.007172	0.033264	0.026855	-0.53711	-0.053558	0.16525	0.003815	0.1268	0.088959	0.67444	0.009613	0.005035	-0.31143	-0.12436	0.01236	-0.045013	0.15427	-0.088348	-0.054779	-0.089722	0.023499	0.043335	-0.009003	-0.71838	0.11627	-0.005188	0.005188
12.147	0.015106	0.45898	-0.008545	-0.008392	0.009003	0.00885	0.037384	0.034637	-0.55069	-0.072632	0.44861	0.001984	0.086365	0.10269	0.078735	-0.002594	0.001373	-0.32654	-0.22079	-0.009613	-0.053101	0.20065	-0.075531	0.034943	-0.15839	0.024567	0.22034	-0.006409	-2.092	0.051575	-0.000305	-0.002441
12.148	0.013733	0.47043	-0.005035	0.005035	0.016479	-0.000763	0.027313	0.03891	-0.47607	-0.077972	0.43854	-0.002441	0.086823	0.092163	-0.18463	0.001831	0.013733	-0.43869	-0.28931	0.030975	-0.084534	0.13382	0.026093	-0.020294	-0.20538	0.016327	0.15778	-0.004578	-0.57602	-0.026855	-0.001984	0.003662
12.149	0.010529	0.43991	-0.039063	-0.002594	0.005798	0.001984	0.030823	0.036926	-0.40741	-0.079193	0.1651	-0.005341	0.088348	0.090027	0.035858	0.001526	0.011902	-0.40436	-0.34424	-0.067902	-0.12817	0.077057	0.12482	-0.070648	-0.271	0.025024	0.24384	-0.003967	0.089111	0.06012	0.001831	0.002289
12.15	0.015869	0.39612	-0.028534	0.008087	0.006409	0.006256	0.008087	0.035248	-0.35187	-0.058441	0.11932	-0.003357	-0.047607	0.12817	0.34027	0.010223	0.007629	-0.48599	-0.027313	-0.11963	-0.12619	0.027008	-0.070496	-0.14542	-0.24612	0.00824	0.31097	-0.006104	1.0622	-0.01709	0.007629	0.003662
12.151	0.007477	0.38711	-0.029602	-0.003357	0.010681	0.018158	0.037384	0.033875	-0.27237	-0.033722	-0.20081	-0.007935	-0.05722	0.098114	-0.28122	0.010376	-0.029144	-0.36377	0.47653	-0.058899	-0.080261	-0.028381	-0.26657	-0.17716	-0.12085	0.015717	0.14664	-0.004425	0.003204	-0.22812	-0.00061	0
12.152	0.002747	0.37293	-0.034637	-0.001678	0.021973	0.028229	0.054321	0.027924	-0.23621	-0.032349	-0.56107	-0.000153	0.025024	0.015411	-0.32349	0.010071	-0.02243	-0.33096	0.052338	-0.019531	0.01358	-0.12787	-0.35507	-0.035706	0.085907	0.009155	0.14099	0.001984	-0.95612	0.0383	-0.000458	-0.000916
